<svg id="svg" version="1.1" xmlns="http://www.w3.org/2000/svg" xmlns:xlink="http://www.w3.org/1999/xlink" width="400" height="400" viewBox="0, 0, 400,400"><g id="svgg"><path id="path0" d="M141.620 1.566 C 126.044 7.103,117.969 19.414,117.969 37.622 L 117.969 46.875 85.279 46.875 C 48.591 46.875,48.270 46.916,39.432 52.782 C 16.905 67.735,20.231 105.024,44.937 114.496 L 48.077 115.699 58.498 241.746 C 64.229 311.071,69.231 369.502,69.613 371.591 C 71.883 384.022,81.958 395.100,94.439 398.888 C 99.818 400.521,300.182 400.521,305.561 398.888 C 318.029 395.104,328.118 384.021,330.382 371.623 C 330.760 369.551,335.762 311.120,341.497 241.777 L 351.925 115.699 355.064 114.495 C 379.769 105.024,383.094 67.735,360.568 52.782 C 351.730 46.916,351.409 46.875,314.721 46.875 L 282.031 46.875 282.031 37.622 C 282.031 19.256,273.868 6.952,258.080 1.520 C 251.409 -0.775,148.090 -0.734,141.620 1.566 M252.202 25.391 C 256.585 28.032,257.988 31.220,258.423 39.533 L 258.807 46.875 200.000 46.875 L 141.193 46.875 141.577 39.533 C 142.096 29.617,144.469 25.812,151.172 24.150 C 157.330 22.623,249.487 23.755,252.202 25.391 M346.094 72.407 C 353.459 76.997,353.459 87.066,346.094 91.656 L 343.359 93.359 200.000 93.359 C 58.026 93.359,56.616 93.344,54.048 91.797 C 45.138 86.428,47.188 73.493,57.336 71.047 C 58.672 70.725,123.574 70.516,201.563 70.583 L 343.359 70.703 346.094 72.407 M327.361 117.773 C 327.572 124.931,306.603 367.383,305.591 369.481 C 302.043 376.838,306.726 376.525,200.000 376.525 C 93.274 376.525,97.957 376.838,94.409 369.481 C 93.397 367.383,72.428 124.931,72.639 117.773 C 72.648 117.451,129.961 117.188,200.000 117.188 C 270.039 117.188,327.352 117.451,327.361 117.773 M123.157 142.108 C 116.666 146.388,116.622 138.340,123.760 252.857 C 130.081 354.277,129.403 348.238,134.858 351.616 C 143.837 357.177,153.142 350.914,153.106 339.333 C 153.034 315.685,141.497 148.276,139.765 145.748 C 136.214 140.565,128.171 138.802,123.157 142.108 M193.470 142.108 C 187.839 145.820,188.292 136.673,188.292 246.875 C 188.292 357.077,187.839 347.930,193.470 351.642 C 198.491 354.953,206.825 353.111,210.236 347.936 C 212.538 344.445,212.538 149.305,210.236 145.814 C 207.831 142.165,204.806 140.635,200.000 140.635 C 197.102 140.635,194.976 141.115,193.470 142.108 M263.754 142.126 C 258.269 145.742,259.005 139.189,252.670 240.830 C 246.258 343.703,246.218 344.691,248.358 347.936 C 253.129 355.173,264.695 355.006,269.032 347.638 C 270.450 345.229,281.966 173.640,282.007 154.297 C 282.032 142.807,272.431 136.406,263.754 142.126 " stroke="none" fill="#000000" fill-rule="evenodd"></path></g></svg>